# xmcd
#
# Track frame offsets:
#	183
#	3100
#	16835
#	27558
#	44420
#	59910
#	75338
#	90650
#	97483
#	118340
#	138488
#	155873
#	176158
#	224948
#	235925
#	259345
#
# Disc length: 3725 seconds
#
# Revision: 1
# Processed by: cddbd v1.4PL0 Copyright (c) Steve Scherf et al.
# Submitted via: audiograbber 1.80.04
#
DISCID=f20e8b10
DTITLE=Untouchables - Live at Metropol
DYEAR=1900
DGENRE=
TTITLE0=Intro: Turn you loose
TTITLE1=Tulsa Time
TTITLE2=Peter Gunn
TTITLE3=Minnie the Moocher
TTITLE4=Kansas City
TTITLE5=Cheek to Cheek
TTITLE6=Wonderful Tonight
TTITLE7=The "Little Willie" Spinetto Story
TTITLE8=Buona Sera
TTITLE9=Standing in the edge of love
TTITLE10=Liza
TTITLE11=Lass den Huat auf
TTITLE12=Blues Medley
TTITLE13=Guilty
TTITLE14=Hey Joe
TTITLE15=Such a Night
EXTD=
EXTT0=
EXTT1=
EXTT2=
EXTT3=
EXTT4=
EXTT5=
EXTT6=
EXTT7=
EXTT8=
EXTT9=
EXTT10=
EXTT11=
EXTT12=
EXTT13=
EXTT14=
EXTT15=
PLAYORDER=
